<svg width="24" height="37" fill="none" xmlns="http://www.w3.org/2000/svg"><path d="M7.765 9.113V7.195c.021-1.855 2.07-3.465 3.748-3.465 1.677 0 3.727 1.59 3.747 3.465v1.918c.021 1.345.207 2.467.497 3.445l3.292-5.137v-.265C19.03 3.058 15.053 0 11.534 0c-3.52 0-7.495 3.058-7.557 7.156v.265l3.27 5.137c.29-.978.498-2.1.518-3.445zm8.22 23.587c-.807.184-2.277.428-4.472.428-2.195 0-3.665-.244-4.472-.428-.104-.265-.228-.51-.331-.775H2.63c.374.959.808 1.978 1.285 3.058l.31.694.725.285c.227.081 2.36.897 6.563.897 4.203 0 6.336-.795 6.563-.897l.725-.286.31-.693c.477-1.08.911-2.1 1.284-3.058h-4.079c-.103.265-.207.51-.33.775z" fill="#5065A9"/><path d="M20.879 13.197c-.145-.244-.27-.468-.415-.712-.02-.061-.062-.102-.082-.163a7.033 7.033 0 01-.29-.55 11.114 11.114 0 01-.56-1.323l-7.995 12.478L3.543 10.47c-.145.468-.353.895-.56 1.323-.083.163-.186.346-.269.509-.041.06-.062.142-.104.203a12.03 12.03 0 01-.414.692c-2.154 3.644-3.459 7.084-.29 15.878H.415v1.038h7.414v-1.038H5.946c-2.154-5.598-2.402-8.651-1.905-10.81l7.497 11.705 7.498-11.704c.497 2.137.249 5.21-1.905 10.809h-1.74v1.038h7.415v-1.038H21.19c3.128-8.794 1.844-12.254-.31-15.878z" fill="#E6676E"/></svg>