<svg version="1.0" xmlns="http://www.w3.org/2000/svg" width="1578.667" height="1578.667" viewBox="0 0 1184 1184"><path d="M556 1c-3 .4-7.5 1-10 1.4-2.5.3-5.6.8-7 1.1-1.4.4-3.8.8-5.5 1.1-14.5 2.4-42.1 12.3-61 21.9-19.3 9.8-45.4 26.8-51.6 33.7-.9 1-1.9 1.8-2.3 1.8-.4 0-2.4 1.7-4.5 3.7-2.1 2.1-5.8 5.6-8.2 7.9-2.5 2.3-7.6 7.6-11.4 11.9-3.9 4.3-7.8 8.7-8.7 9.7-1 1-1.8 2-1.8 2.4 0 .3-1.3 1.9-3 3.7-1.6 1.8-3 3.7-3 4.4 0 .6-.4 1.3-.9 1.5-1.3.5-13.2 19.3-17.5 27.8-2.2 4.1-4.3 8.2-4.7 9-2.9 5.5-10.3 25.4-11.4 30.6-.2 1-1.3 5.5-2.5 9.9-2.5 9.8-2.5 9.7-4.6 26-.3 2.2-.7 9.1-.8 15.3-.3 9.2-.1 12 1.3 14.3.9 1.6 2 2.9 2.4 2.9.5 0 .5.4.2 1-.3.5-.1 1 .4 1 .6 0 1.1.5 1.1 1.1 0 .5 1.9 3.8 4.3 7.3 2.3 3.4 4.7 7.1 5.4 8.2 5.8 9.5 16.2 25.8 21.3 33.4 3.5 5.2 7 11.2 7 12 0 .4.3 1 .8 1.2.4.1 4.3 5.9 8.6 12.8 4.4 6.9 10.3 16.1 13.1 20.5 5.7 8.7 21.1 33 23.5 37 11 18 14.4 22.6 15.3 21 .9-1.7 3.4-10.1 4.2-14 .2-1.1.6-2.9.8-4 .7-2.5 3.4-15.3 4-18.5.5-2.4 1.1-5.9 2.2-12.5 1.8-10.3 3.6-26.6 4-36.5.2-3.6.4-6.5.5-6.5.1 0 .3-19.4.4-43 .2-23.7.6-44.4.9-46 .4-1.7.9-4.1 1.2-5.4.7-3.6 4.6-15.4 5.5-16.6.5-.6.8-1.2.8-1.5-.2-1.2 4.9-10.2 10.1-17.9 5.7-8.6 18.5-22.4 25.6-27.7 2.1-1.6 4.7-3.6 5.6-4.6 5.3-5.2 35.9-20.6 38.9-19.6.3.1 1.5-.4 2.6-1 1.9-1 5.7-2 10.9-2.7 1.1-.2 2-.4 2-.5 0-2 33.4-1.4 36.7.7.5.2 1.8.6 3 .9 3.8.8 4.1.9 9.8 2.8 5.6 1.9 24.1 10.4 25 11.6.3.4 1.2.9 2 1.2 3.7 1.4 19.3 13.9 27 21.8 7.9 8 19 22.5 19 24.8 0 .6.3 1.2.8 1.4 1.9.8 9.5 20.5 10.7 27.8.4 2.5.9 5.4 1.2 6.5.2 1.1.6 22.5.8 47.5.4 38.6.9 56.5 1.5 56.5.1 0 .3 2 .5 4.5.4 6.2 1.4 15 2 18 .3 1.4.7 4.3 1 6.5.3 2.2.7 5.1 1 6.5.3 1.4.7 3.9.9 5.7.3 1.8.7 4 1 5 .3 1 .8 2.9 1 4.3.3 1.4 1 4.5 1.6 7 .6 2.5 1.3 5.6 1.6 7 .7 3.4 3.6 12 3.9 12 .2 0 7.4-11.1 16.1-24.8 14.2-22.1 18.1-28.2 21.4-33.2 1-1.5 11.3-17.6 16-25 3-4.8 18.7-29.3 25.2-39.3 7.4-11.4 20-31.3 23.4-36.7 3-4.9 3.1-5.3 2.8-15.3-.2-5.6-.5-12.9-.8-16.2-.5-6.1-.6-6.9-2.8-18.5-.7-3.6-1.1-6.9-1-7.4.2-.4-.1-1.3-.6-2-.5-.6-1.3-2.9-1.7-5.1-1.1-5.4-.9-4.8-4.5-15-1.7-4.9-4.3-11.3-5.6-14.1-1.3-2.8-2.4-5.6-2.4-6.1 0-.6-.9-2.2-2.1-3.7-1.1-1.4-1.7-2.6-1.4-2.6.4 0 .3-.6-.3-1.3-.5-.6-2.2-3.5-3.7-6.2-4.7-8.6-14.9-23.7-21.6-32-6.2-7.7-19.4-22.1-23.3-25.4-1-.9-2.3-2.1-3-2.7-1.5-1.4-10.6-9.4-14-12.2-1.5-1.3-5-3.9-7.9-6-2.9-2-5.4-3.9-5.7-4.2-.3-.3-1.4-1-2.5-1.7-1.1-.6-6.3-3.9-11.6-7.2-5.3-3.4-10.1-6.1-10.7-6.1-.7 0-1.2-.5-1.2-1 0-.6-.9-1-1.9-1-1.1 0-2.2-.4-2.5-.8-.5-.8-7.5-4.4-16.6-8.5-10.3-4.6-36.7-13.2-44-14.3-1.9-.3-5.3-1-7.5-1.6-2.2-.6-5.8-1.2-8-1.4-2.2-.2-5.1-.6-6.5-.9-3.7-1-39.7-1.3-46-.5z"/><path d="M831.5 337c-.3 1.1-1 2-1.5 2-.4 0-1 .8-1.4 1.7-.3 1-6.4 10.8-13.5 21.8s-17.8 27.6-23.7 37c-6 9.3-11.2 17.1-11.6 17.3-.4.2-.8.8-.8 1.4 0 .6-1.1 2.6-2.5 4.4-1.4 1.8-2.5 3.5-2.5 3.7 0 .4-3.6 6.2-8 12.7-7.2 10.8-15 23.3-15 24 0 .6-.4 1-1 1-.5 0-1 .5-1 1 0 .6-1.7 3.6-3.8 6.8-2.2 3.1-5.5 8.2-7.4 11.2-1.9 3-5.7 8.9-8.4 13s-5.5 8.7-6.2 10.2c-.8 1.6-1.8 2.8-2.3 2.8-.5 0-.9.6-.9 1.3 0 .7-.8 2.2-1.8 3.3-1 1-2.1 2.7-2.5 3.6-.3 1-3.3 5.7-6.5 10.5-3.2 4.9-8 12.4-10.7 16.8-2.8 4.4-5.3 8.4-5.8 9-.9 1.1-19.3 29.9-21.1 33-.6 1.1-1.3 2.2-1.6 2.5-1 1-8 12-8 12.5 0 .3-.5 1.1-1 1.8-1.5 1.7-9.5 13.9-10.3 15.7-.7 1.5-13 20.7-14.5 22.5-.4.5-4.6 7.1-9.2 14.5-4.7 7.4-8.7 13.7-9 14-.3.3-1.7 2.3-3 4.5s-5.6 8.9-9.5 15c-18.7 28.9-25.5 39.6-25.5 40.1 0 .3-.7 1.2-1.6 2.1-1.4 1.4-1.6 1.4-2.9-.3-.8-1.1-1.5-2.3-1.5-2.7 0-.4-.5-1.3-1-2-.6-.7-2.3-3.2-3.9-5.7-5.4-8.4-16.4-25.5-19.2-29.8-1.6-2.4-2.9-4.7-2.9-5.3 0-.5-.3-.9-.8-.9-.4 0-1.2-.9-1.7-2-1.1-2.1-16.8-26.7-26.6-41.5-3.3-5-6.5-10.1-7.1-11.5-.7-1.4-1.5-2.7-1.8-3-.3-.3-2-2.8-3.8-5.5-1.8-2.8-3.7-5.7-4.2-6.5-5.4-8.1-9-14.1-9-14.9 0-.5-.3-1.1-.7-1.3-.5-.2-2-2.1-3.4-4.3-4.6-6.9-23-35.8-24.4-38.3-.5-.9-1.2-1.9-1.5-2.2-1.3-1.3-15-23.2-15-24.1 0-.5-.4-.9-.9-.9s-1.5-1.2-2.2-2.8c-.8-1.5-4.1-6.8-7.3-11.7-3.2-5-7.9-12.3-10.5-16.3-2.5-4-7.9-12.2-11.8-18.4-4-6.1-7.3-11.4-7.3-11.9s-.4-.9-1-.9c-.5 0-1-.5-1-1 0-.6-3.2-5.8-7-11.6-3.9-5.8-7-10.7-7-10.9 0-.3-2.6-4.4-5.8-9.2-3.2-4.8-7.7-11.7-10-15.3-2.2-3.6-4.6-7-5.1-7.7-.6-.7-1.1-1.5-1.1-1.7 0-.3-3.3-5.6-7.3-11.8-6.4-9.8-13.2-20.5-21-32.7-1.2-1.9-2.7-4.3-3.3-5.3-.6-1-1.9-2.7-2.9-3.8-1-1.1-1.5-2-1.2-2 .4 0-1.3-2.9-3.8-6.4-2.5-3.6-4.5-6.7-4.5-7 0-.8-3.3-4.6-4-4.6-.3 0-.6.8-.7 1.7-.5 5.2-13.4 33.5-25.7 56.3-2.5 4.7-5.2 9.7-5.8 11.2-.7 1.6-1.6 2.8-2 2.8-.4 0-.8.5-.8 1 0 .6-2.2 4.6-4.9 8.9-11.8 18.8-31.4 55.8-41.6 78.6-6.9 15.3-18.8 50.9-21.2 63.4-.3 1.4-.6 3-.7 3.6-.2.5-.6 2.8-1.1 5-.4 2.2-.9 4.9-1.2 6-1.7 8.7-2.6 13.4-2.8 15.5-.2 1.4-.6 5.2-1 8.5s-.9 7.3-1.1 9c-2.3 20.2-2.3 71 .1 86 .3 1.6.7 5.7 1 9 .7 8.3 1.9 18.2 3 24.6.5 3.4 1.5 9.9 2 13.4.3 1.6.7 4.1 1 5.5.3 1.4.8 4 1.1 5.9.3 1.8.8 4.3 1 5.5.2 1.1.7 3.7 1 5.6.4 1.9.9 4.4 1.1 5.5 1.7 7.5 2.5 11.3 2.9 13 .2 1.1 1.1 4.9 2 8.5.8 3.6 1.7 7.4 1.9 8.5.1 1.1.5 2.7.8 3.5.4.8 1.1 3.5 1.7 6 .6 2.5 1.3 5.2 1.5 6 .2.8.9 3.5 1.5 6 1.1 4.5 8.3 30 10.1 35.5.5 1.6 2.8 8.8 5 16 2.2 7.1 4.3 13.7 4.6 14.5.3.8.7 2 .8 2.6.4 1.6 8.5 25.6 9.5 27.9 1.5 3.6 5 13.5 4.7 13.6-.1.1-10.8.2-23.7.3l-23.5.1-.2 16.2c-.1 11.4.2 16.3 1 16.5.7.3 54.1.4 118.7.4l117.5-.1.1-16.2c0-13.9-.2-16.3-1.5-16.7-.9-.2-14.5-.3-30.4-.2-15.8 0-28.7-.3-28.7-.7 0-.5-.7-2.3-1.5-4-.8-1.8-2-5-2.8-7.2-.8-2.2-4.5-12.3-8.2-22.5-3.7-10.1-6.8-18.9-7-19.5-.1-.5-.5-1.7-.8-2.5-.3-.8-1.6-4.4-2.8-8-1.1-3.6-2.4-6.9-2.7-7.5-.4-.5-.7-1.5-.7-2 0-1.1-2.1-7.8-3.5-11-.4-1.1-1.3-4-2-6.5s-2.4-7.9-3.7-12c-1.4-4.1-2.6-8.2-2.8-9-.2-.8-1.7-6.2-3.3-12-2.7-9.3-5.8-20.7-6.7-25-.2-.8-1.3-5.3-2.5-10s-2.3-9.2-2.5-10c-1.1-5.1-3.5-16.9-3.9-19-.2-1.4-.7-3.6-1-5-1-4.5-1.7-8.6-3.1-18.3-.3-2.3-.8-4.9-1-5.7-.2-.8-.6-3.8-.9-6.5-.4-2.8-.9-6.6-1.2-8.6-.5-3.6-.8-6.3-2.1-21.9-1.6-19.7-.6-53.4 2.1-71 1.9-12.5 3.7-20 4.7-19.5.5.4.9 1.1.9 1.6s.5 1.5 1.1 2.2c1.5 1.7 16.9 25.6 16.9 26.3 0 .3.5 1 1 1.7 1.1 1.2 8.1 12.1 16 24.7 2.5 3.9 5.1 7.8 5.8 8.5.6.8 1.2 1.6 1.2 1.9 0 .4 6.9 11.4 11.1 17.6.5.8 5.4 8.5 10.9 17 5.4 8.5 12.3 19.2 15.2 23.8 2.9 4.5 5.7 9.1 6.3 10.2.5 1.1 1.3 2 1.7 2 .5 0 .8.7.8 1.5s.5 1.5 1 1.5c.6 0 1 .5 1 1 0 .6 2.3 4.4 5 8.5 2.8 4.1 5 7.6 5 7.9 0 .2 2.5 4.2 5.6 8.8 3.1 4.5 5.9 9 6.2 9.8.3.8 1.4 2.4 2.4 3.4 1 1.1 2.4 3.2 3 4.8.7 1.5 1.6 2.8 2 2.8.5 0 .8.7.8 1.5s.5 1.5 1 1.5c.6 0 1 .4 1 .9 0 1 14.4 23.8 16.6 26.2.8.8 1.4 1.9 1.4 2.3 0 .3 2.3 4 5 8.2 2.8 4.1 5 7.9 5 8.4s.4 1 .8 1.2c.7.2 10.8 15.8 14.7 22.6 1.5 2.6 4.9 7.6 5.5 8.2.8.8 2.9 4.2 4.2 7 .7 1.4 1.8 2.9 2.5 3.3.8.5 1.1 1.2.8 1.6-.2.5.4 1.6 1.5 2.6s2 2.4 2 3.2c0 .7.4 1.3.8 1.3.5 0 1.5 1.2 2.3 2.7 1.1 2.2 10.6 17.2 15.9 25.3 8.4 12.6 14.8 23 14.2 23-.4 0-.2.4.4.8.6.4 5 6.8 9.7 14.2 4.7 7.4 9.1 14 9.6 14.7.6.7 1.1 1.6 1.1 2.1 0 .4.5 1.3 1.1 1.9.9.9 1.9 0 4.2-3.5 1.6-2.6 3.7-5.8 4.7-7.2.9-1.4 5.2-8.1 9.5-15 4.4-6.9 8.3-12.7 8.7-12.8.4-.2.8-.8.8-1.3s3.9-6.9 8.8-14.4c4.8-7.4 17.2-26.9 27.7-43.2 10.4-16.4 19.2-30 19.5-30.3.7-.7 2.8-4.1 3.7-6 .4-.8 1.1-2 1.5-2.5 2.2-2.7 10.8-16.7 10.8-17.5 0-.6.3-1 .8-1 .4 0 1.8-2 3.2-4.5 1.4-2.5 2.7-4.5 3-4.5.3 0 1.8-2.5 3.5-5.5 1.6-3 3.2-5.5 3.6-5.5.3 0 1.4-1.8 2.4-4s2.1-4 2.5-4c.4 0 1.3-1.4 2-3 .7-1.7 1.6-3 2.1-3s.9-.5.9-1.1c0-.6 1.1-2.5 2.5-4.3 1.4-1.8 2.5-3.8 2.5-4.4 0-.7.4-1.2.9-1.2s1.3-1 1.7-2.3c.4-1.2 1-2.4 1.3-2.7.4-.3 3.1-4.3 6.1-9 2.9-4.7 5.8-8.8 6.4-9.2.6-.4.8-.8.5-.8-.7 0 8.8-15.2 11-17.7.6-.7 1.1-1.5 1.1-1.8 0-.3 1.8-3.3 4-6.5s4-6.4 4-6.9c0-.6.3-1.1.8-1.1.4 0 1.8-2 3.2-4.5 1.4-2.5 2.8-4.5 3.1-4.5.4 0 .9-.8 1.2-1.8.5-1.5 24.3-39.1 26.5-41.7.4-.6 1.9-2.8 3.2-5 1.3-2.2 2.7-4.2 3-4.5.4-.3 1.3-1.6 2-3s4.9-8.2 9.4-15.1 8.6-13.4 9.3-14.5c.7-1 3.9-6.1 7.2-11.3l6-9.3 1 3.8c1.2 4.6 1.8 8.1 2.7 14.9.7 5.4 1.2 8 1.4 8 .2 0 1 11.4 1.5 21 .2 5.5.5 10.1.5 10.2.2.4.2 9.2 0 9.5 0 .2-.3 6-.5 13s-.6 14.5-.9 16.5c-.3 2.1-.8 6.7-1.1 10.3-.3 3.6-.8 7.6-1 9-.2 1.4-.7 4.5-1 6.9-.3 2.3-.7 5.5-1 7-.3 1.5-.7 4.3-.9 6.2-.3 1.9-.7 4.6-1 5.9-.3 1.4-.8 4.1-1.1 6-.2 1.9-.6 4.4-.9 5.5-.8 3.3-3.5 15.9-3.9 18.5-.3 1.4-1.2 5.4-2.1 9-.9 3.6-1.9 7.6-2.2 9-.3 1.4-.6 2.9-.8 3.5-.2.5-.6 2.3-1 4-.4 1.6-1 3.7-1.3 4.5-.3.8-.8 2.4-1 3.5-.2 1.1-.8 3.8-1.4 6-.6 2.2-1.1 4.1-1 4.2 0 .2-.6 2.1-1.4 4.3-.8 2.2-1.5 4.2-1.5 4.5-.1.8-.7 2.8-2.9 10.2-1.2 4-2.4 8.1-2.6 9-.1 1-3.8 12.1-8 24.8-4.2 12.6-7.8 23.4-7.9 24-.2.5-.6 1.9-1 3-1.7 4.4-1.9 5-2.2 6-.1.5-.8 2.3-1.5 4-.6 1.6-1.3 3.4-1.4 4-.7 3-12.8 34.2-13.6 35-.6.6-11.6 1-28.2 1h-27.2v33h237.2l-.1-16.5-.1-16.5-24.5-.1c-28.7-.2-27.3-.1-26.5-1.4.3-.5.8-1.8 1-2.7.2-1 1.6-5 3-8.8 1.4-3.9 2.8-7.7 3-8.6.2-.8 1-3.2 1.9-5.2.8-2.1 1.5-4 1.5-4.2 0-.3 2.6-8.5 5.8-18.3 3.1-9.7 5.8-18.2 5.9-18.7.1-.6 1-3.7 2-7s1.9-6.5 2-7c.3-1.1 5.7-20.6 7.4-26.5 2.2-7.9 10.3-41.4 11.4-47.5.3-1.7.8-4.1 1.1-5.5.3-1.4.7-3.6 1-5 .3-1.4.7-3.6 1-5 .3-1.4.9-5 1.5-8 .5-3 1.2-7.1 1.6-9 .3-1.9.7-4.6.9-6 .2-1.4.8-5.4 1.4-9 .6-3.6 1.3-8.5 1.5-11 .3-2.5.7-6.5 1-9 .4-2.5.8-6.7 1.1-9.3.2-2.6.7-5.2 1-5.7.3-.5.1-1.1-.5-1.5-.6-.4-.7-1.3-.2-2.3 1.1-2.3 1.6-14.2 1.6-40.2 0-26.2-.7-38.2-3.5-56-.5-3.6-1.2-7.9-1.4-9.5-.6-4.1-1.3-8.2-2.5-13.5-.6-2.5-1.2-5.4-1.4-6.5-.9-4.7-6-22.8-9.1-32.5-1.9-5.8-3.5-11-3.6-11.5-.1-.6-1-2.8-2.2-5-1.1-2.2-1.9-4-1.7-4 .1 0-.5-1.8-1.5-4-.9-2.2-2.2-5.1-2.7-6.5-.6-1.4-1.2-3-1.3-3.5-.2-.6-2.8-6.3-5.9-12.8-3-6.4-5.4-11.8-5.3-12 .1-.1-.8-1.6-2.1-3.4-1.2-1.7-2.2-3.4-2.2-3.8 0-.3-1.8-3.8-4-7.8-2.1-4-3.9-7.6-3.9-8.1.1-.5-.3-1.2-.8-1.5-.5-.3-2.8-4-5.1-8.1s-5.3-9.3-6.7-11.5c-1.4-2.2-2.8-4.7-3.2-5.5-.4-.8-2.3-4.2-4.3-7.5s-5.4-9.2-7.5-13c-2-3.9-5.1-9.5-6.8-12.5-1.6-3-3.3-5.9-3.8-6.4-.5-.6-.9-1.8-.9-2.8 0-1-.4-1.8-1-1.8-.5 0-1-.7-1-1.6 0-.8-1.1-3.5-2.5-6s-2.5-5.1-2.5-5.9c0-.8-.4-1.5-1-1.5-.5 0-1-.6-1-1.4 0-.8-1.3-4.3-2.8-7.8-1.6-3.4-3.7-8.7-4.6-11.5-2-6-3.2-7.2-4.1-4.3zM293 1022.6c0 1.1 5.9 16.6 9.5 24.9.7 1.6 3 7 5 12 2.1 4.9 4.3 10.3 5 12 .7 1.6 3.4 7.9 6 14 2.5 6 6 13.8 7.6 17.3 1.6 3.5 2.9 6.5 2.9 6.8 0 .2 1 2.6 2.1 5.2 1.2 2.6 3.4 7.4 4.9 10.7 1.5 3.3 3.7 8.3 5 11.2l2.3 5.1 14.8 5.7c8.1 3.2 14.9 5.7 15.1 5.6.2-.1 1.9.5 3.8 1.3s3.7 1.4 4 1.4c.3.1 1.2.3 2 .6s4.2 1.2 7.5 2 9.8 2.4 14.5 3.6c7.4 1.8 12.6 3 20.5 4.5 7.2 1.4 27.3 4.7 28.5 4.7.8 0 3.5.4 6 .8 2.5.5 7 1.1 10 1.4 3 .4 7.8.9 10.5 1.2 7.3.9 19 1.9 33.5 2.9 40.7 2.8 100.3 2.4 138.2-.9 2-.2 4.1-.6 4.6-1 .6-.3 1.3-.2 1.7.4.4.6 1.1.8 1.6.4 1-.6 2.7-.8 13.9-1.9 4.1-.4 8.2-.9 9.1-1 .8-.2 4-.6 7-.9 3-.3 6.5-.8 7.9-1 1.4-.3 4.3-.7 6.5-1.1 4.4-.6 8.5-1.2 13-2 1.7-.3 4.6-.8 6.5-1.1 1.9-.3 5.3-1 7.5-1.5s5.1-1.1 6.5-1.4c1.4-.2 4.5-.9 7-1.5s5.3-1.2 6.3-1.5c1-.2 5.2-1.4 9.5-2.5 4.2-1.2 8.2-2.3 8.7-2.4 4.7-1 37.1-13.3 39.3-15 .7-.5 2.1-2.8 3.2-5 4.2-9.4 7.5-16.9 13.2-30.1 3.3-7.7 6.6-15.3 7.4-16.9.8-1.6 1.4-3.5 1.4-4.3 0-.7.5-1.3 1-1.3.6 0 1-.6 1-1.3 0-1.2 4.4-12.1 9.1-22.4 1-2.4 1.9-4.5 1.9-4.8 0-.2 1.1-2.9 2.5-5.9 1.4-3 2.5-5.8 2.5-6.1 0-.4.7-2.1 1.5-3.8 1.7-3.8 6.5-16.7 6.5-17.6 0-1-128.9-.6-129.8.4-.5.6-2.8 5.6-5.1 11.2-5.1 12.1-5.7 13.1-9.6 13.7-1.6.2-3 .5-3 .6 0 .1-.9.3-2 .4-2.5.4-8.3 1.4-11.5 2.1-3.5.7-6.7 1.3-12.5 2.1-2.7.3-5.9.8-7 1-1.1.3-4.5.7-7.5 1-3 .3-6.8.7-8.5.9-1.6.2-5.5.6-8.5.9-3 .3-7.7.8-10.5 1-7.2.7-25.3 1.7-37 2.1-5.5.2-10.4.4-11 .5-.5.1-1.3.1-1.7 0-1-.2-7.5-.2-8.5 0-.5.1-3.5.2-6.8.1-5.6-.1-10.8-.1-13.7 0-8.4.2-46.4-1.6-57.3-2.7-2.7-.3-7.5-.8-10.5-1-14.1-1.2-13.9-1.2-29-3.5-6.8-1.1-12.4-2-15-2.3-.8-.2-3-.6-4.8-1-1.9-.4-4.3-.9-5.5-1.1-1.2-.2-3.1-.6-4.2-.9-1.1-.2-2.8-.5-3.8-.5-1.6-.1-6.5-9.2-10.7-20.1-.7-1.9-1.7-3.9-2.2-4.5-1.3-1.4-129.8-1.3-129.8.1z"/></svg>