<svg width="1701" height="1334" viewBox="0 0 1701 1334" fill="none" xmlns="http://www.w3.org/2000/svg">
<path d="M1548.03 1158.6H1511.81V1142.58C1511.81 1139.95 1512.6 1137.31 1513.97 1134.88C1515.16 1132.65 1516.93 1130.42 1518.7 1128.39C1520.47 1126.36 1522.64 1124.54 1524.61 1122.51C1526.57 1120.68 1528.54 1118.86 1530.32 1116.83C1532.09 1115.01 1533.47 1112.98 1534.45 1110.95C1535.43 1109.13 1536.02 1107.1 1536.02 1104.87C1536.02 1103.45 1535.83 1102.03 1535.24 1100.61C1534.84 1099.39 1534.06 1098.18 1533.27 1097.16C1532.48 1096.15 1531.3 1095.34 1530.12 1094.73C1528.94 1094.12 1527.56 1093.92 1525.98 1093.92C1523.82 1093.92 1522.24 1094.32 1520.87 1094.93C1519.68 1095.74 1518.7 1096.55 1517.91 1097.77C1517.12 1098.99 1516.73 1100.41 1516.53 1102.03C1516.34 1103.85 1516.14 1105.68 1516.14 1107.5V1110.14C1516.14 1110.95 1516.14 1111.56 1516.34 1112.37L1516.73 1115.01H1477.75L1477.55 1112.98C1477.36 1111.76 1477.36 1110.55 1477.16 1109.33C1476.96 1108.11 1476.96 1106.9 1476.96 1105.48C1476.96 1098.99 1478.34 1092.9 1481.1 1087.63C1483.85 1082.36 1487.59 1077.9 1492.32 1074.05C1497.04 1070.4 1502.75 1067.56 1509.05 1065.53C1515.35 1063.7 1522.44 1062.69 1529.92 1062.69C1537.21 1062.69 1543.9 1063.7 1550 1065.53C1556.11 1067.35 1561.42 1070.19 1565.75 1073.84C1570.08 1077.49 1573.63 1081.95 1576.19 1087.02C1578.55 1092.09 1579.93 1097.97 1579.93 1104.26C1579.93 1108.92 1579.14 1113.18 1577.37 1116.83C1575.79 1120.48 1573.63 1123.73 1571.07 1126.56C1568.71 1129.4 1565.95 1131.84 1563.19 1134.07C1560.44 1136.1 1557.88 1138.12 1555.52 1139.95C1553.35 1141.57 1551.38 1143.19 1549.81 1144.81C1548.62 1146.03 1548.03 1147.05 1548.03 1148.06V1158.6ZM1516.34 1153.94H1543.51V1148.06C1543.51 1145.83 1544.49 1143.6 1546.46 1141.37C1548.03 1139.75 1550.2 1137.92 1552.56 1136.1C1554.92 1134.27 1557.48 1132.45 1560.24 1130.21C1562.8 1128.19 1565.36 1125.96 1567.52 1123.32C1569.69 1120.89 1571.66 1117.85 1573.04 1114.8C1574.42 1111.76 1575.2 1108.11 1575.2 1104.26C1575.2 1098.78 1574.02 1093.71 1572.05 1089.25C1569.89 1084.79 1566.93 1080.94 1563 1077.7C1559.06 1074.45 1554.33 1072.02 1548.62 1070.19C1543.11 1068.37 1536.81 1067.56 1529.92 1067.56C1522.83 1067.56 1516.14 1068.37 1510.23 1070.19C1504.33 1072.02 1499.21 1074.65 1494.88 1077.9C1490.74 1081.14 1487.4 1085.2 1485.03 1089.86C1482.67 1094.53 1481.49 1099.8 1481.49 1105.68C1481.49 1106.9 1481.49 1107.91 1481.69 1108.92C1481.69 1109.33 1481.88 1109.94 1481.88 1110.34H1511.61V1110.14V1107.5C1511.61 1105.48 1511.81 1103.25 1512.01 1101.22C1512.4 1098.99 1512.99 1096.96 1514.17 1095.34C1515.16 1093.51 1516.73 1092.09 1518.7 1090.88C1520.67 1089.66 1523.03 1089.25 1525.98 1089.25C1528.35 1089.25 1530.32 1089.66 1532.09 1090.67C1533.86 1091.48 1535.43 1092.7 1536.62 1094.12C1537.8 1095.54 1538.78 1097.16 1539.57 1099.19C1540.16 1101.01 1540.55 1103.04 1540.55 1105.07C1540.55 1108.11 1539.77 1110.95 1538.58 1113.38C1537.4 1115.61 1535.63 1118.05 1533.86 1120.08C1532.09 1122.1 1529.92 1124.13 1527.95 1126.16C1525.98 1127.98 1524.02 1129.81 1522.24 1131.63C1520.47 1133.46 1519.09 1135.28 1518.11 1137.11C1517.12 1138.73 1516.73 1140.56 1516.73 1142.38V1153.94H1516.34Z" fill="#E6676E"/>
<path d="M1548.42 1201.6H1511.81V1166.11H1548.42V1201.6ZM1516.33 1196.93H1543.9V1170.77H1516.33V1196.93Z" fill="#E6676E"/>
<path d="M1633.29 1223.48H1597.66V1207.87C1597.66 1205.23 1598.25 1202.6 1599.63 1200.37C1600.81 1198.14 1602.38 1196.11 1604.35 1194.08C1606.12 1192.05 1608.09 1190.23 1610.26 1188.4C1612.23 1186.58 1614 1184.75 1615.77 1182.93C1617.35 1181.1 1618.72 1179.08 1619.91 1177.25C1620.89 1175.43 1621.28 1173.6 1621.28 1171.37C1621.28 1169.95 1621.09 1168.53 1620.69 1167.11C1620.3 1165.9 1619.71 1164.68 1618.72 1163.66C1617.94 1162.65 1616.95 1161.84 1615.57 1161.23C1614.39 1160.62 1613.02 1160.42 1611.44 1160.42C1609.27 1160.42 1607.7 1160.83 1606.52 1161.43C1605.34 1162.25 1604.35 1163.06 1603.76 1164.27C1602.97 1165.49 1602.58 1166.91 1602.38 1168.53C1602.19 1170.36 1601.99 1172.18 1601.99 1174.01V1176.44C1601.99 1177.25 1601.99 1177.86 1602.19 1178.67L1602.58 1181.31H1564.39L1564.19 1179.28C1563.99 1178.06 1563.99 1176.85 1563.8 1175.83C1563.6 1174.61 1563.6 1173.4 1563.6 1171.98C1563.6 1165.49 1564.98 1159.61 1567.54 1154.34C1570.1 1149.27 1573.84 1144.81 1578.56 1141.16C1583.09 1137.51 1588.8 1134.67 1595.1 1132.84C1601.4 1131.02 1608.29 1130 1615.57 1130C1622.66 1130 1629.36 1131.02 1635.26 1132.84C1641.17 1134.67 1646.48 1137.51 1650.62 1140.95C1654.95 1144.4 1658.3 1148.86 1660.66 1153.93C1663.02 1159 1664.2 1164.68 1664.2 1170.76C1664.2 1175.43 1663.42 1179.48 1661.64 1183.13C1660.07 1186.58 1657.9 1189.82 1655.54 1192.66C1653.18 1195.5 1650.62 1197.93 1647.67 1199.96C1644.91 1201.99 1642.55 1204.02 1640.18 1205.64C1638.02 1207.26 1636.05 1208.88 1634.67 1210.3C1633.49 1211.52 1633.1 1212.53 1633.1 1213.55V1223.48H1633.29ZM1602.19 1218.82H1628.77V1213.14C1628.77 1210.91 1629.75 1208.68 1631.72 1206.65C1633.29 1205.03 1635.46 1203.21 1637.82 1201.38C1640.18 1199.56 1642.55 1197.73 1645.3 1195.7C1647.86 1193.68 1650.22 1191.45 1652.39 1189.01C1654.56 1186.58 1656.33 1183.74 1657.9 1180.7C1659.28 1177.66 1660.07 1174.21 1660.07 1170.36C1660.07 1164.88 1659.08 1160.01 1656.92 1155.55C1654.75 1151.09 1651.8 1147.44 1648.06 1144.2C1644.12 1141.16 1639.59 1138.52 1634.08 1136.9C1628.57 1135.28 1622.47 1134.26 1615.77 1134.26C1608.88 1134.26 1602.38 1135.07 1596.48 1136.9C1590.77 1138.72 1585.65 1141.16 1581.52 1144.4C1577.38 1147.65 1574.03 1151.5 1571.87 1156.16C1569.51 1160.62 1568.32 1165.9 1568.32 1171.57C1568.32 1172.79 1568.32 1173.8 1568.52 1174.82C1568.52 1175.22 1568.52 1175.83 1568.72 1176.24H1597.66V1176.03V1173.8C1597.66 1171.78 1597.86 1169.75 1598.05 1167.72C1598.45 1165.49 1599.04 1163.66 1600.02 1161.84C1601.01 1160.01 1602.58 1158.6 1604.35 1157.38C1606.32 1156.16 1608.68 1155.76 1611.44 1155.76C1613.61 1155.76 1615.77 1156.16 1617.54 1157.18C1619.32 1157.99 1620.89 1159.2 1622.07 1160.62C1623.25 1162.04 1624.24 1163.66 1624.83 1165.49C1625.42 1167.31 1625.81 1169.14 1625.81 1171.17C1625.81 1174.21 1625.22 1176.85 1623.84 1179.28C1622.66 1181.51 1621.09 1183.74 1619.12 1185.97C1617.35 1188 1615.38 1190.03 1613.21 1191.85C1611.24 1193.68 1609.47 1195.5 1607.7 1197.33C1606.12 1199.15 1604.75 1200.98 1603.57 1202.8C1602.58 1204.42 1602.19 1206.25 1602.19 1208.07V1218.82V1218.82Z" fill="#E6676E"/>
<path d="M1633.69 1265.45H1597.66V1230.58H1633.69V1265.45ZM1602.19 1260.79H1629.16V1235.24H1602.19V1260.79Z" fill="#E6676E"/>
<path d="M1626.39 1087.83H1597.84V1075.06C1597.84 1072.82 1598.43 1070.8 1599.42 1068.97C1600.4 1067.35 1601.58 1065.52 1603.16 1063.9C1604.53 1062.48 1606.11 1060.86 1607.68 1059.44C1609.26 1058.02 1610.64 1056.6 1612.02 1055.18C1613.2 1053.76 1614.38 1052.34 1615.17 1050.92C1615.95 1049.71 1616.15 1048.29 1616.15 1046.67C1616.15 1045.65 1615.95 1044.64 1615.56 1043.62C1615.17 1042.61 1614.77 1041.8 1614.18 1041.19C1613.59 1040.58 1612.8 1039.97 1612.02 1039.57C1611.23 1039.16 1610.24 1038.96 1609.06 1038.96C1607.49 1038.96 1606.31 1039.16 1605.52 1039.77C1604.73 1040.38 1603.94 1040.99 1603.55 1041.8C1602.96 1042.61 1602.76 1043.62 1602.57 1044.84C1602.37 1046.26 1602.17 1047.48 1602.17 1048.9V1050.92C1602.17 1051.53 1602.17 1051.94 1602.37 1052.55L1602.76 1055.18H1572.25L1571.85 1050.32C1571.66 1049.3 1571.66 1048.29 1571.66 1047.27C1571.66 1042.21 1572.64 1037.54 1574.81 1033.49C1576.97 1029.43 1579.73 1025.98 1583.47 1022.94C1587.01 1020.1 1591.34 1017.87 1596.46 1016.45C1601.38 1015.03 1606.7 1014.22 1612.41 1014.22C1617.92 1014.22 1623.04 1015.03 1627.77 1016.45C1632.49 1017.87 1636.43 1020.1 1639.97 1022.74C1643.32 1025.58 1646.08 1029.02 1648.04 1032.88C1650.01 1036.93 1650.8 1041.39 1650.8 1046.06C1650.8 1049.71 1650.21 1052.95 1648.83 1055.79C1647.45 1058.63 1645.88 1061.06 1643.91 1063.29C1641.94 1065.52 1639.97 1067.35 1637.81 1069.17C1635.64 1070.8 1633.87 1072.22 1632.1 1073.64C1630.32 1074.85 1628.95 1076.07 1627.96 1077.29C1627.17 1078.1 1626.78 1078.7 1626.78 1079.31V1087.83H1626.39ZM1602.37 1083.17H1621.86V1079.31C1621.86 1077.49 1622.65 1075.66 1624.22 1073.84C1625.4 1072.62 1627.17 1071.2 1628.95 1069.78C1630.72 1068.36 1632.69 1066.94 1634.66 1065.32C1636.62 1063.9 1638.4 1062.08 1640.17 1060.05C1641.74 1058.22 1643.12 1055.99 1644.3 1053.76C1645.29 1051.53 1645.88 1048.9 1645.88 1046.06C1645.88 1042 1645.09 1038.15 1643.52 1034.91C1641.94 1031.66 1639.58 1028.62 1636.82 1026.39C1633.87 1023.96 1630.32 1022.13 1626.19 1020.91C1622.06 1019.49 1617.33 1018.89 1612.21 1018.89C1606.9 1018.89 1601.97 1019.49 1597.45 1020.91C1593.12 1022.33 1589.18 1024.16 1586.03 1026.59C1582.88 1029.02 1580.32 1032.07 1578.74 1035.51C1576.97 1038.96 1576.18 1042.81 1576.18 1047.27C1576.18 1048.09 1576.18 1048.9 1576.38 1049.71V1050.32H1597.84V1048.69C1597.84 1047.07 1598.04 1045.45 1598.23 1043.83C1598.43 1042 1599.02 1040.38 1599.81 1039.16C1600.6 1037.74 1601.97 1036.53 1603.35 1035.51C1604.93 1034.5 1606.9 1034.09 1609.26 1034.09C1611.03 1034.09 1612.8 1034.5 1614.18 1035.11C1615.56 1035.72 1616.74 1036.73 1617.72 1037.95C1618.71 1039.16 1619.5 1040.38 1620.09 1042C1620.68 1043.42 1620.88 1045.04 1620.88 1046.67C1620.88 1049.1 1620.28 1051.33 1619.3 1053.36C1618.32 1055.18 1617.13 1057.01 1615.56 1058.63C1614.18 1060.25 1612.61 1061.67 1611.03 1063.29C1609.46 1064.71 1608.08 1066.13 1606.7 1067.55C1605.52 1068.97 1604.34 1070.19 1603.55 1071.61C1602.76 1072.82 1602.57 1074.04 1602.57 1075.46V1083.17H1602.37Z" fill="#E6676E"/>
<path d="M1626.78 1120.27H1597.84V1092.29H1626.78V1120.27ZM1602.37 1115.61H1622.25V1096.95H1602.37V1115.61Z" fill="#E6676E"/>
<path d="M1614 0H1610V1016H1614V0Z" fill="#E6676E"/>
<path d="M1600.01 1260.98H0V1265.28H1600.01V1260.98Z" fill="#E6676E"/>
</svg>
