<svg viewBox="0 0 19 18" fill="none" xmlns="http://www.w3.org/2000/svg"><path d="M7.635 5.225V4.126c.01-1.064 1.03-1.987 1.865-1.987s1.854.912 1.865 1.987v1.099a8.29 8.29 0 00.247 1.975l1.638-2.945v-.152C13.24 1.753 11.262 0 9.51 0 7.76 0 5.78 1.753 5.75 4.103v.152L7.378 7.2a8.254 8.254 0 00.257-1.975zm4.131 10.955c-.41.08-1.154.187-2.266.187s-1.857-.108-2.266-.188c-.052-.116-.115-.223-.168-.339H5c.189.42.41.866.65 1.339l.158.303.367.125C6.29 17.643 7.37 18 9.5 18s3.21-.348 3.325-.393l.367-.125.158-.303c.24-.473.461-.92.65-1.339h-2.066a5.073 5.073 0 01-.168.34z" fill="#5065A9"/><path d="M14.365 7.068c-.075-.116-.14-.223-.216-.339-.01-.03-.032-.048-.043-.078-.054-.087-.108-.174-.15-.261a5.05 5.05 0 01-.292-.63L9.501 11.7 5.338 5.77c-.075.223-.183.426-.29.63-.044.077-.098.164-.141.242-.022.029-.032.068-.054.097a5.99 5.99 0 01-.216.33c-1.121 1.733-1.8 3.371-.15 7.557H3.71v.494h3.861v-.494h-.982c-1.121-2.665-1.25-4.118-.992-5.145l3.904 5.571 3.904-5.571c.26 1.017.13 2.48-.992 5.145h-.906v.494h3.861v-.494h-.841c1.628-4.186.96-5.833-.162-7.558z" fill="#E6676E"/></svg>