<svg width="162" height="39" fill="none" xmlns="http://www.w3.org/2000/svg"><path d="M7.765 9.113V7.195c.021-1.855 2.07-3.465 3.748-3.465 1.677 0 3.727 1.59 3.747 3.465v1.918c.021 1.345.207 2.467.497 3.445l3.292-5.137v-.265C19.03 3.058 15.053 0 11.534 0c-3.52 0-7.495 3.058-7.557 7.156v.265l3.27 5.137c.29-.978.498-2.1.518-3.445zm8.22 23.587c-.807.184-2.277.428-4.472.428-2.195 0-3.665-.244-4.472-.428-.104-.265-.228-.51-.331-.775H2.63c.374.959.808 1.978 1.285 3.058l.31.694.725.285c.227.081 2.36.897 6.563.897 4.203 0 6.336-.795 6.563-.897l.725-.286.31-.693c.477-1.08.911-2.1 1.284-3.058h-4.079c-.103.265-.207.51-.33.775z" fill="#5065A9"/><path d="M20.879 13.197c-.145-.244-.27-.468-.415-.712-.02-.061-.062-.102-.082-.163a7.033 7.033 0 01-.29-.55 11.114 11.114 0 01-.56-1.323l-7.995 12.478L3.543 10.47c-.145.468-.353.895-.56 1.323-.083.163-.186.346-.269.509-.041.06-.062.142-.104.203a12.03 12.03 0 01-.414.692c-2.154 3.644-3.459 7.084-.29 15.878H.415v1.038h7.414v-1.038H5.946c-2.154-5.598-2.402-8.651-1.905-10.81l7.497 11.705 7.498-11.704c.497 2.137.249 5.21-1.905 10.809h-1.74v1.038h7.415v-1.038H21.19c3.128-8.794 1.844-12.254-.31-15.878zm14.767.326h2.009v-1.038h-7.892v1.038h1.947l.083.753a3.3 3.3 0 01-.207 1.12c-.041.06-.124.224-.248.448-.332.59-.56.956-.663 1.099l-.767 1.12c-1.429 2.096-2.423 3.786-3.044 5.109-.829 1.79-1.243 3.277-1.243 4.457 0 .876.249 1.609.766 2.158.497.55 1.202.835 2.072.835.683 0 1.346-.244 2.03-.713 1.242-.875 2.299-2.402 3.148-4.539.414-1.038.683-1.913.828-2.585l1.885 6.453h-1.926v1.038h7.622v-1.038h-1.74l-4.66-15.715zm-2.651 9.526c-.953 2.484-2.01 3.705-3.19 3.705-.85 0-1.326-.407-1.45-1.221v-.652c.124-.936.31-1.71.6-2.32l.54-1.14.662-1.221c.6-1.12 1.43-2.382 2.423-3.766l1.119 3.97c-.104.773-.352 1.668-.704 2.645zm27.133-10.564l-.683.122-1.119.163c-.331.04-.849.061-1.595.061H47.37c-.58.04-1.098.02-1.595-.061l-1.098-.163c-.31-.081-.538-.122-.704-.122-.767 0-1.14.326-1.119.957 0 .142.104.488.332.997l.435 1.018c.103.244.165.448.207.59.145.672.207 1.018.207 1.079.02.224.041.427.041.651.021.265.083.469.187.631a.56.56 0 00.559.367c.29 0 .456-.082.497-.244l.186-.428.145-.57c.29-1.12.56-1.913.788-2.402.227-.488.497-.814.766-.977.27-.183.683-.264 1.201-.264h1.678v15.348H47.97v1.038h8.14v-1.038h-2.112V13.869h1.097c.6 0 1.077.04 1.388.143.725.223 1.305 1.12 1.719 2.666l.373 1.425.207.448c.145.142.29.204.476.204.332 0 .601-.448.787-1.364.27-1.283.415-1.934.415-1.934l.455-1.038c.207-.469.311-.794.311-.977 0-.224-.083-.448-.27-.672-.206-.204-.496-.285-.828-.285zm11.06 0a7.091 7.091 0 00-3.707 1.018 5.717 5.717 0 00-2.403 2.809l-.083 12.905h-2.112v1.038h8.14v-1.038H68.91V23.6l1.74-2.239.56.285 1.097.509c.228.102.56.142.994.142a4.03 4.03 0 002.216-.651c1.388-.916 2.092-2.3 2.092-4.193 0-.896-.27-1.73-.787-2.524-1.118-1.629-2.983-2.443-5.634-2.443zm.29 8.04l-.435-.122-.497-.305-1.615 2.015v-3.949c0-.834.062-1.69.186-2.565.187-1.384.829-2.076 1.906-2.076 1.429 0 2.133 1.303 2.133 3.888-.02 2.076-.58 3.114-1.678 3.114zm21.81 7.695l-.27-.814-.145-1.018c-.02-.143-.082-.489-.207-1.079-.041-.285-.248-.428-.58-.428-.269 0-.435.062-.476.184l-.186.366-.145.489c-.332 1.058-.622 1.77-.912 2.137-.352.468-.745.774-1.16.957l-.642.142-.745.04h-2.092V21.91h3.334v-1.1h-3.334v-6.94h2.071l.766.04.642.142c.415.163.808.489 1.16.957.29.366.6 1.079.912 2.137l.145.489.186.366c.041.122.207.183.476.183.332 0 .539-.142.58-.427.125-.59.187-.936.207-1.079l.145-1.018.27-.814.248-.672c.145-.407.228-.651.228-.753 0-.55-.207-.855-.58-.936 1.326-.733 2.216-2.117 2.216-3.705 0-2.34-1.926-4.254-4.329-4.254-2.381 0-4.328 1.893-4.328 4.254 0 1.873 1.242 3.46 2.94 4.03H83.76c1.201-.447 2.071-1.607 2.071-2.951 0-1.75-1.45-3.175-3.23-3.175-1.782 0-3.232 1.424-3.232 3.175 0 1.344.85 2.504 2.071 2.952h-1.78v1.038h2.112v15.348h-2.113v1.038h2.983v.326c0 .977.621 1.811 1.49 2.137l-2.67 6.107h.62l3.294-5.944h.165l.27 5.944h.6l.249-5.944h.166l3.293 5.944h.621l-2.755-6.29a2.274 2.274 0 001.098-1.954v-.326h.104c1.056 0 1.967.061 2.734.204l.58.101.414.041c.56 0 .828-.326.828-.977 0-.102-.082-.346-.227-.753l-.228-.631zM94.365 8.8a.912.912 0 01-1.823 0c0-.488.414-.895.911-.895.498 0 .912.387.912.896zm-2.072-2.93a.91.91 0 01.912.895.912.912 0 01-1.823 0c0-.489.394-.896.911-.896zm0 4.05c.498 0 .912.407.912.896a.912.912 0 01-1.823 0c0-.489.394-.896.911-.896zM89.87 5.87a.91.91 0 01.911.895.912.912 0 01-1.822 0c0-.489.414-.896.911-.896zM87.8 8.8a.912.912 0 011.823 0 .912.912 0 01-1.823 0zm1.16 2.016a.912.912 0 011.822 0 .912.912 0 01-.91.895.898.898 0 01-.912-.895zm-3.894-.937a.684.684 0 01-1.367 0 .684.684 0 011.367 0zm-1.553-2.198c.372 0 .683.305.683.672a.684.684 0 01-1.367 0c0-.367.31-.672.684-.672zm0 3.033c.372 0 .683.305.683.672a.684.684 0 01-1.367 0c0-.367.31-.672.684-.672zM81.71 7.68c.372 0 .683.305.683.672a.684.684 0 01-1.367 0c0-.367.31-.672.684-.672zm-1.533 2.198a.684.684 0 011.367 0 .684.684 0 01-1.367 0zm.85 1.507a.684.684 0 011.366 0 .684.684 0 01-1.367 0zm36.535 2.485h1.76v15.347h-5.136V13.87h1.76v-1.038h-7.435v1.038h1.76v15.348h-5.116V13.87h1.74v-1.038h-7.788v1.038h2.113v15.348h-2.113v1.059h26.243v-1.059h-2.113V13.87h2.113v-1.038h-7.788v1.038zm23.757 10.828a7.06 7.06 0 00-2.547-2.605c-.87-.51-2.051-.937-3.501-1.262 1.036-1.975 1.595-3.013 1.678-3.115l.456-.671c.269-.387.497-.652.683-.794a1.955 1.955 0 011.326-.51c.414 0 .87.103 1.367.306l.808.326h.497l.083-1.201.103-.814.539-1.405a5.557 5.557 0 00-2.237-.448c-.684 0-1.243.143-1.678.448-.87.59-1.657 1.588-2.403 3.033l-.973 1.893-.249.468-.683 1.486-.352.692h-.932V13.87h1.74v-1.038h-7.788v1.038h2.112v15.348h-2.112v1.038h7.601v-1.038h-1.574v-7.816c1.761.386 3.003 1.12 3.749 2.218.704 1.039 1.036 2.443.973 4.255l-.041 1.343h-.994v1.038h6.897v-1.038h-1.512c-.021-1.832-.352-3.358-1.036-4.519zm18.766 4.519l-4.66-15.694h2.009v-1.038h-7.891v1.038h1.947l.083.753c0 .346-.063.713-.208 1.12-.041.06-.124.224-.248.448-.331.59-.559.956-.663 1.099l-.766 1.12c-1.429 2.096-2.424 3.786-3.045 5.109-.828 1.79-1.243 3.277-1.243 4.457 0 .876.249 1.609.767 2.158.518.55 1.201.835 2.071.835.683 0 1.346-.244 2.03-.713 1.242-.875 2.299-2.402 3.148-4.539.414-1.038.683-1.913.828-2.585l1.885 6.453h-1.926v1.038h7.601v-1.038h-1.719v-.02zm-7.311-6.168c-.953 2.484-2.009 3.705-3.19 3.705-.849 0-1.325-.407-1.45-1.221v-.652c.125-.936.332-1.71.601-2.32l.539-1.14.662-1.221c.601-1.12 1.429-2.382 2.444-3.766l1.119 3.97a13.43 13.43 0 01-.725 2.645z" fill="#E6676E"/><path d="M99.107 21.604v-3.867l-.642-.896-5.385 2.646v4.214l5.385 2.646.642-.896v-3.847z" fill="#E6676E"/></svg>